<?xml version="1.0" encoding="UTF-8" standalone="no"?>
<!DOCTYPE svg PUBLIC "-//W3C//DTD SVG 1.1//EN" "http://www.w3.org/Graphics/SVG/1.1/DTD/svg11.dtd">
<svg width="100%" height="100%" viewBox="0 0 420 309" version="1.1" xmlns="http://www.w3.org/2000/svg" xmlns:xlink="http://www.w3.org/1999/xlink" xml:space="preserve" xmlns:serif="http://www.serif.com/" style="fill-rule:evenodd;clip-rule:evenodd;stroke-linecap:round;stroke-linejoin:round;stroke-miterlimit:1.5;">
    <g transform="matrix(1,0,0,1,-38.9498,-94.9782)">
        <g transform="matrix(0.468288,0,0,0.468288,53.2315,196.91)">
            <path d="M-28.896,410.271L79,406C79,406 116.875,409.241 122,390C127.125,370.759 126,367 126,367C126,367 127.589,410.437 107,412C92.759,413.081 99.114,381.193 109,371C116.599,363.164 134.812,335.372 127,333C119.188,330.628 108.988,375.082 121,373C133.012,370.918 166,326 166,326C166,326 195.243,292.319 216,236C236.757,179.681 239.026,191.013 268,183C296.974,174.987 353.833,187.584 345,214C336.167,240.416 316.642,287.476 279,332C279,332 301.206,274.892 303,264C304.794,253.108 314.609,209.923 325,201L270,180C270,180 258.751,179.477 261,165C263.249,150.523 257.687,147.593 247,145C236.313,142.407 145.728,126.591 184,115C222.272,103.409 248.46,107.404 231,94C213.54,80.596 186.409,83.701 183,53C179.591,22.299 182,27 182,27" style="fill:none;stroke:rgb(51,84,67);stroke-width:3.2px;"/>
        </g>
        <g transform="matrix(0.468288,0,0,0.468288,52.2949,97.1649)">
            <path d="M184,240L188,158C188,158 186.613,146.161 195,143C203.387,139.839 220.567,140.084 221,131C221.433,121.916 242.747,57.42 272,71L271,66L277,73L289,81C289,81 292.179,52.039 260,51C245.118,50.52 238,53 238,53C238,53 220.951,54.196 227,45C233.049,35.804 257.699,32.535 257,44C256.301,55.465 234,59 234,59C234,59 217.182,63.24 216,89C214.818,114.76 227,120 227,120C227,120 221.207,100.291 228,99C234.793,97.709 235,114 235,114C235,114 232.042,94.72 248,90C263.958,85.28 275.679,71.459 275.679,71.459C275.679,71.459 285.219,82.615 286,93C286.781,103.385 282.498,124.515 271,136C259.502,147.485 247.648,137.809 238,127C238,127 248.081,134.686 242,139C235.919,143.314 243.576,154.635 259,156C274.424,157.365 283.257,168.456 298,198C312.743,227.544 322,240 322,240C322,240 323.744,244.763 330,243C336.256,241.237 375,225 375,225C375,225 381.184,221.657 380,209C378.816,196.343 381.623,165.884 392,209C392,209 411.798,170.927 423,182C423.328,182.324 423.644,182.643 423.876,183.007C427.402,188.511 403,218 403,218C403,218 364.598,256.129 341,269C317.402,281.871 310,262 310,262C310,262 285.921,228.784 284,223C282.079,217.216 274.479,200.385 265,216C255.521,231.615 236.276,283.776 255,256C273.724,228.224 278,208 278,208C278,208 281.247,205.392 278,193C274.753,180.608 265,160 265,160C265,160 259.6,146.226 255,158C250.4,169.774 233,208 233,208C233,208 225.085,220.406 219,203C212.915,185.594 196.224,149.888 188,145C179.776,140.112 173.449,138.412 176,152C178.551,165.588 188.051,214.359 188,230C187.949,245.641 162.347,266.063 150,294C137.653,321.937 131.934,342.665 135,395C138.066,447.335 132.246,475.231 126,489" style="fill:none;stroke:rgb(51,84,67);stroke-width:3.2px;"/>
        </g>
        <g transform="matrix(0.468288,0,0,0.468288,19.5148,182.393)">
            <path d="M196,307C196,307 182.098,328.325 168,336C153.902,343.675 119.082,369.365 163,373C206.918,376.635 276.81,354.146 283,327C289.19,299.854 286.459,280.525 313,270C339.541,259.475 348.07,252.083 353,230C357.93,207.917 355.461,188.229 380,178C404.539,167.771 399.252,168.168 384,155C368.748,141.832 306,104 306,104C306,104 369.149,154.419 415,180C460.851,205.581 444.037,236.433 431,262C417.963,287.567 364,373 364,373C364,373 345.675,377.518 342,372L341,383C341,383 340.288,397.428 361,402C381.712,406.572 389.524,411.53 395,404C395,404 399.303,401.018 390,393C380.697,384.982 367,380 367,380C367,380 362.443,380.193 372,387C381.557,393.807 407,412 407,412C407,412 413.567,419 449,419L495,419" style="fill:none;stroke:rgb(51,84,67);stroke-width:3.2px;"/>
        </g>
        <g transform="matrix(0.468288,0,0,0.468288,223.22,153.359)">
            <path d="M60,481C60,481 92.775,479.809 97,478C101.225,476.191 105,474 105,474C105,474 72.869,473.271 90,456C107.131,438.729 130.732,430.85 137,428C143.268,425.15 154.011,420.398 154,408C153.989,395.602 147,358 147,358C147,358 139.836,334.207 162,336C184.164,337.793 210.4,338.678 197,324C183.6,309.322 181.407,307.662 192,294C202.593,280.338 284,197 284,197C284,197 291.655,186.252 297,184C302.345,181.748 315.773,180.053 323,173C330.227,165.947 324.182,162.534 317,163C309.818,163.466 253.425,182.046 240,165C226.575,147.954 208.332,108.241 208,85C208,85 221.231,94.399 209,106C196.769,117.601 169.371,141.892 159,145C159,145 80.619,147.045 66,112C66,112 64.636,107.474 65,103C65.364,98.526 66.87,96.702 61,93C55.13,89.298 11.907,63.408 22,53C30.488,44.247 54,74 54,74C54,74 36.374,42.918 51,52C65.626,61.082 64.268,66.319 73,71C81.732,75.681 77.125,99.866 71,104C71,104 72.358,77.925 85,79C97.642,80.075 117.283,91.238 130,93C142.717,94.762 157,108 157,108C157,108 144.263,104.824 153,96C161.737,87.176 178.611,75.796 188,56C197.389,36.204 199.338,36.061 206,31C212.662,25.939 214.995,19.927 215,10C215.005,0.073 208.124,1.684 205,3" style="fill:none;stroke:rgb(51,84,67);stroke-width:3.2px;"/>
        </g>
        <g transform="matrix(0.468288,0,0,0.468288,217.6,89.204)">
            <path d="M217,140C217,140 195.207,144.479 188,124C180.793,103.521 176.958,67.148 196,69C215.042,70.852 224.617,64.907 242,83C259.383,101.093 236.653,107.886 232,110L232,92C232,92 232.362,79.695 224,90C215.638,100.305 218.551,99.154 214,94C209.449,88.846 200.969,80.605 181,81C161.031,81.395 176.377,62.213 179,60C181.623,57.787 207.859,30.086 236,44C236,44 243.615,47.273 249,58C249,58 263.226,55.692 265,77C266.774,98.308 248.483,117.678 249,127C249.517,136.322 263.869,140.528 261,155C258.131,169.472 245.548,190.977 238,175C230.452,159.023 227.475,157.958 225,169C222.467,180.304 218.781,219.311 233,205C244.123,193.805 240.166,179.316 249,191C255.385,200.597 254.331,197.41 255,193C255.669,188.59 250.758,181.76 259,184C267.242,186.24 305.246,205.445 297,187C288.754,168.555 270,146 270,146C270,146 295.041,149.347 307,145C318.959,140.653 331.286,146.43 332,158C332.714,169.57 335.408,174.57 331,175C326.592,175.43 319.749,148.43 329,143C338.251,137.57 362.596,142.548 379,138C395.404,133.452 407.716,130.205 412,138C416.284,145.795 411.322,145.762 409,140C406.678,134.238 401.123,104.625 410,93C418.877,81.375 415.293,77.078 412,70C408.707,62.922 398.946,45.742 404,42C409.054,38.258 412.901,58.626 422,58C431.099,57.374 415.342,16.293 438,14C438,14 443.29,11.903 446,31C448.71,50.097 450.642,70.108 442,70C433.358,69.892 391.61,76.361 420,78C448.39,79.639 448.664,71.235 452,78C452,78 477.524,153.979 429,179C380.476,204.021 346.421,215.929 337,201L363,257C363,257 374.711,277.031 369,303C363.289,328.969 375.765,351.877 360,381C344.235,410.123 282.68,461.925 278,493" style="fill:none;stroke:rgb(51,84,67);stroke-width:3.2px;"/>
        </g>
        <g transform="matrix(0.468288,0,0,0.468288,212.918,152.423)">
            <path d="M288,358C288,358 275.475,386.945 307,421C338.525,455.055 353.535,461.638 348,468C342.465,474.362 314,446 314,446C314,446 256.317,384.598 268,351C279.683,317.402 317.023,254.283 321,258C324.977,261.717 296.349,293.083 280,306C263.651,318.917 229.219,346.906 214,376C198.781,405.094 170,441 170,441C170,441 160.581,456.789 143,454C125.419,451.211 119.706,445.456 85,461C50.294,476.544 40.53,495.423 80,494C119.47,492.577 134,481 134,481C134,481 130.04,456.257 143,460C155.96,463.743 105.095,469.683 112,434C118.905,398.317 168.592,317.099 190,305C211.408,292.901 294,200 294,200C294,200 300.421,187.22 294,187C287.579,186.78 295.79,212.496 316,214C336.21,215.504 377.535,183.724 382,178C382,178 425.376,203.767 401,270C376.624,336.233 344.328,366.129 317,370C317,370 338.522,344.207 385,401C431.478,457.793 392.933,484.457 366,472C366,472 394.491,461.358 400,481" style="fill:none;stroke:rgb(51,84,67);stroke-width:3.2px;"/>
        </g>
        <g transform="matrix(0.468288,0,0,0.468288,284.097,193.164)">
            <path d="M248,394L248,410C248,410 249.119,420.684 197,442C144.881,463.316 202.496,407.664 204,389C204,389 201.561,408.217 223,401C244.439,393.783 252.472,395.143 259,399C265.528,402.857 371,402 371,402" style="fill:none;stroke:rgb(51,84,67);stroke-width:3.2px;"/>
        </g>
        <g transform="matrix(0.468288,0,0,0.468288,-28.7188,63.4482)">
            <path d="M346,221C346,221 343.898,230.83 350,245C356.102,259.17 354.514,269.185 346,264C337.486,258.815 271.558,237.051 259,227C246.442,216.949 230.818,215.034 244,189C257.182,162.966 294,117 294,117C294,117 315.219,78.571 325,86C325,86 327.672,91.087 319,100C310.328,108.913 302.036,118.235 314,118C325.964,117.765 331.298,116.625 323,121C314.702,125.375 303,129 303,129C303,129 277.426,165.893 273,181C268.574,196.107 268.432,199.307 288,207C307.568,214.693 346,221 346,221Z" style="fill:none;stroke:rgb(51,84,67);stroke-width:3.2px;"/>
        </g>
    </g>
</svg>
