<?xml version="1.0" encoding="UTF-8" standalone="no"?>
<!DOCTYPE svg PUBLIC "-//W3C//DTD SVG 1.1//EN" "http://www.w3.org/Graphics/SVG/1.1/DTD/svg11.dtd">
<svg width="100%" height="100%" viewBox="0 0 481 318" version="1.1" xmlns="http://www.w3.org/2000/svg" xmlns:xlink="http://www.w3.org/1999/xlink" xml:space="preserve" xmlns:serif="http://www.serif.com/" style="fill-rule:evenodd;clip-rule:evenodd;stroke-linecap:round;stroke-linejoin:round;stroke-miterlimit:1.5;">
    <g transform="matrix(1,0,0,1,-7.44838,-8.50211)">
        <g transform="matrix(9.2311,0,0,9.2311,-1587.5,-2184.65)">
            <g transform="matrix(12,0,0,12,218.333,272.628)">
            </g>
            <text x="179.657px" y="272.628px" style="font-family:'MLingWaiMedium-TC', 'LingWai TC', cursive;font-weight:500;font-size:12px;">dress code</text>
        </g>
        <path d="M68,321L43,321C43,321 17.571,323.685 11,302C4.429,280.315 19.352,270.378 44,257C68.648,243.622 243,150 243,150L241,90C241,90 278.422,79.279 274,40C270,4.473 200.452,-5.786 202,48" style="fill:none;stroke:black;stroke-width:4px;"/>
        <g transform="matrix(-0.999504,0.031477,0.031477,0.999504,486.522,-8.38461)">
            <path d="M68,321L43,321C43,321 17.571,323.685 11,302C4.429,280.315 19.352,270.378 44,257C68.648,243.622 247.998,149.843 247.998,149.843" style="fill:none;stroke:black;stroke-width:4px;"/>
        </g>
        <g transform="matrix(0.0619926,0.0176034,0.0176034,0.99967,242.55,-4.55188)">
            <path d="M61,322L434,315" style="fill:none;stroke:black;stroke-width:5.54px;"/>
        </g>
    </g>
</svg>
