<?xml version="1.0" encoding="UTF-8" standalone="no"?>
<!DOCTYPE svg PUBLIC "-//W3C//DTD SVG 1.1//EN" "http://www.w3.org/Graphics/SVG/1.1/DTD/svg11.dtd">
<svg width="100%" height="100%" viewBox="0 0 451 426" version="1.1" xmlns="http://www.w3.org/2000/svg" xmlns:xlink="http://www.w3.org/1999/xlink" xml:space="preserve" xmlns:serif="http://www.serif.com/" style="fill-rule:evenodd;clip-rule:evenodd;stroke-linecap:round;stroke-linejoin:round;stroke-miterlimit:1.5;">
    <g transform="matrix(1,0,0,1,-47.184,-23.7528)">
        <g>
            <path d="M64,267L64,278" style="fill:none;stroke:rgb(51,84,67);stroke-width:3px;"/>
            <g transform="matrix(1,0,0,1,16,0)">
                <path d="M64,267L64,278" style="fill:none;stroke:rgb(51,84,67);stroke-width:3px;"/>
            </g>
            <path d="M117,334C117,334 132.197,364.057 154,377" style="fill:none;stroke:rgb(51,84,67);stroke-width:3px;"/>
            <path d="M388,296C388,296 385.334,313.387 372,328" style="fill:none;stroke:rgb(51,84,67);stroke-width:3px;"/>
            <path d="M435,281C435,281 458.334,293.078 472,277C485.666,260.922 470.661,243.96 461,250C451.339,256.04 449.432,273.897 465,278C480.568,282.103 492.691,269.512 496,261" style="fill:none;stroke:rgb(51,84,67);stroke-width:3px;"/>
            <path d="M142,206C142,206 137.066,238.432 155,238C168.936,237.665 171,210 171,210" style="fill:none;stroke:rgb(51,84,67);stroke-width:3px;"/>
            <path d="M237,109C237,109 140.597,115.643 94,216C94,216 89.762,231.344 77,233C64.238,234.656 48.622,238.753 49,259C49.378,279.247 44.023,308.275 66,314C87.977,319.725 94.428,319.837 99,335C103.572,350.163 124.369,380.029 160,405L161,425C161,425 162.73,441.879 179,443C195.27,444.121 201,445 201,445C201,445 211.441,444.881 213,434C214.559,423.119 228,427 228,427C228,427 270.463,430.644 292,427C313.537,423.356 310,433 310,433C310,433 310.541,449.496 332,447C353.459,444.504 358.678,441.97 360,421C361.322,400.03 359.632,397.27 371,389C382.368,380.73 433.288,338.382 435,280C437.99,178.013 341.043,123.874 341,124" style="fill:none;stroke:rgb(51,84,67);stroke-width:3px;"/>
            <path d="M127,166C127,166 108.971,36.159 201,117" style="fill:none;stroke:rgb(51,84,67);stroke-width:3px;"/>
            <g transform="matrix(1.80769,0,0,1.80769,-276.423,-30.5)">
                <circle cx="315" cy="65" r="26" style="fill:none;stroke:rgb(51,84,67);stroke-width:1.66px;"/>
            </g>
            <g transform="matrix(6.29112,0,0,6.29112,-1508.04,-413.099)">
                <path d="M285.556,85.212L285.556,84.157C285.029,84.091 284.6,83.972 284.27,83.803C283.94,83.633 283.655,83.358 283.415,82.979C283.175,82.6 283.035,82.138 282.996,81.591L284.056,81.391C284.138,81.958 284.283,82.374 284.49,82.639C284.787,83.014 285.142,83.223 285.556,83.266L285.556,79.909C285.123,79.827 284.679,79.659 284.226,79.405C283.89,79.218 283.632,78.958 283.45,78.626C283.268,78.294 283.177,77.917 283.177,77.495C283.177,76.745 283.443,76.138 283.974,75.673C284.33,75.36 284.857,75.169 285.556,75.098L285.556,74.595L286.177,74.595L286.177,75.098C286.791,75.157 287.277,75.337 287.636,75.638C288.097,76.02 288.375,76.546 288.468,77.214L287.379,77.378C287.316,76.964 287.186,76.646 286.989,76.426C286.792,76.205 286.521,76.059 286.177,75.989L286.177,79.03C286.709,79.163 287.06,79.266 287.232,79.341C287.56,79.485 287.828,79.661 288.035,79.868C288.242,80.075 288.401,80.321 288.512,80.606C288.624,80.891 288.679,81.2 288.679,81.532C288.679,82.263 288.447,82.872 287.982,83.36C287.517,83.848 286.916,84.11 286.177,84.145L286.177,85.212L285.556,85.212ZM285.556,75.977C285.146,76.04 284.823,76.204 284.587,76.47C284.35,76.735 284.232,77.05 284.232,77.413C284.232,77.772 284.333,78.073 284.534,78.315C284.735,78.557 285.076,78.751 285.556,78.895L285.556,75.977ZM286.177,83.266C286.588,83.216 286.926,83.038 287.194,82.733C287.462,82.429 287.595,82.052 287.595,81.602C287.595,81.22 287.501,80.912 287.311,80.68C287.122,80.447 286.744,80.239 286.177,80.055L286.177,83.266Z" style="fill:rgb(51,84,67);fill-rule:nonzero;stroke:white;stroke-width:0.32px;stroke-linecap:butt;stroke-miterlimit:2;"/>
            </g>
            <path d="M148,147C148,147 137.866,83.42 179,125" style="fill:none;stroke:rgb(51,84,67);stroke-width:3px;"/>
            <path d="M257,136C257,136 228.413,115.622 233,79C237.587,42.378 279.794,13.523 316,30C347.77,44.458 362.105,72.738 353,101C343.895,129.262 312,146 312,146" style="fill:none;stroke:rgb(51,84,67);stroke-width:3px;"/>
            <g transform="matrix(1,0,0,0.865534,0,21.1111)">
                <path d="M237,135.379C237,135.379 284.691,120.223 332,157" style="fill:none;stroke:rgb(51,84,67);stroke-width:3.21px;"/>
            </g>
            <path d="M400,240C400,240 429.425,284.642 375,350" style="fill:none;stroke:rgb(51,84,67);stroke-width:3px;"/>
        </g>
    </g>
</svg>
